<svg width="32" height="32" viewBox="0 0 32 32" fill="none" xmlns="http://www.w3.org/2000/svg">
<g clip-path="url(#clip0_900_277)">
<path d="M19.4589 5.33301L19.6009 5.34001C21.9359 5.59401 23.6909 6.13701 25.3589 7.32301C25.5579 7.46501 25.7089 7.66801 25.7889 7.90201C27.9639 14.201 28.5409 19.738 27.4719 22.456C26.3089 24.832 24.4499 26.667 22.3769 26.667C21.5279 26.667 20.4139 25.519 19.6779 24.243C20.4999 24.09 21.3129 23.895 22.1159 23.659C22.7319 23.479 23.0889 22.822 22.9129 22.193C22.7369 21.563 22.0939 21.198 21.4779 21.378C17.6289 22.504 14.3709 22.504 10.5219 21.378C9.90591 21.198 9.26391 21.563 9.08791 22.193C8.91091 22.822 9.26791 23.479 9.88391 23.659C10.7149 23.9 11.5259 24.097 12.3219 24.244C11.5859 25.518 10.4719 26.667 9.62291 26.667C7.54991 26.667 5.69191 24.832 4.48891 22.366C3.45991 19.738 4.03691 14.2 6.21091 7.90201C6.29191 7.66801 6.44191 7.46501 6.64091 7.32301C8.30991 6.13701 10.0639 5.59401 12.3989 5.34001C12.8259 5.29401 13.2429 5.49201 13.4829 5.85601L13.5559 5.98301L14.3109 7.50601L14.4699 7.48701C15.4879 7.38001 16.5149 7.38001 17.5339 7.48701L17.6889 7.50601L18.4429 5.98401C18.6139 5.63701 18.9409 5.39801 19.3169 5.34401L19.4589 5.33301ZM12.5219 13.63C11.3769 13.63 10.4029 14.484 10.2299 15.641L10.2089 15.823L10.2029 16L10.2089 16.178C10.3029 17.46 11.3799 18.432 12.6369 18.367C13.8929 18.303 14.8699 17.227 14.8389 15.941C14.8079 14.656 13.7799 13.63 12.5219 13.63ZM19.4779 13.63C18.3329 13.63 17.3599 14.484 17.1859 15.641L17.1649 15.823L17.1599 16L17.1649 16.178C17.2599 17.46 18.3369 18.432 19.5929 18.367C20.8499 18.303 21.8269 17.227 21.7959 15.941C21.7649 14.656 20.7359 13.63 19.4779 13.63Z" fill="#1A1C1E"/>
</g>
<defs>
<clipPath id="clip0_900_277">
<rect width="32" height="32" fill="white"/>
</clipPath>
</defs>
</svg>
