<svg xmlns="http://www.w3.org/2000/svg" xmlns:xlink="http://www.w3.org/1999/xlink" viewBox="0 0 24 11"><path d="M 7.516 0.923 C 7.516 2.962 5.833 4.614 3.757 4.614 C 1.682 4.614 0 2.961 0 0.923 L 1.686 0.923 C 2.235 0.923 2.753 1.168 3.096 1.589 L 3.757 2.401 L 4.419 1.589 C 4.761 1.168 5.28 0.923 5.828 0.923 L 7.515 0.923 M 18.137 0 C 21.231 0 23.738 2.462 23.738 5.5 C 23.738 8.538 21.23 11 18.137 11 L 8.587 11 C 5.493 11 2.986 8.538 2.986 5.5 L 4.53 5.5 C 4.53 6.988 6.197 8.196 8.255 8.196 C 9.227 8.196 10.114 7.925 10.777 7.482 C 12.493 6.446 12.495 4.12 13.362 2.626 C 14.504 0.656 16.117 0 18.137 0 M 20.253 3.476 C 20.361 3.582 20.507 3.642 20.66 3.642 C 20.813 3.642 20.96 3.582 21.068 3.476 C 21.176 3.37 21.236 3.226 21.236 3.076 C 21.236 2.926 21.176 2.782 21.068 2.676 C 20.96 2.569 20.813 2.51 20.66 2.51 C 20.507 2.51 20.361 2.569 20.253 2.676 C 20.145 2.782 20.084 2.926 20.084 3.076 C 20.084 3.226 20.145 3.37 20.253 3.476" fill="#999999"></path></svg>