<svg width="55" height="66" viewBox="0 0 55 66" fill="none" xmlns="http://www.w3.org/2000/svg">
<path fill-rule="evenodd" clip-rule="evenodd" d="M49.8375 17.6177C50.1685 17.6731 50.6318 17.7008 51.2274 17.7008C52.2202 17.7008 53.1137 17.3684 53.9079 16.7036C54.636 15.9834 55 15.1801 55 14.2936C55 12.4654 54.272 10.7756 52.8159 9.22438C50.3008 6.17729 47.488 3.87812 44.3773 2.32687C41.2004 0.775625 37.3947 0 32.9603 0C32.6955 0 32.0668 0.0277021 31.074 0.0831037L28.9892 0.0831037C26.5403 0.63712 24.4886 1.55125 22.8339 2.82549C21.1131 4.09972 20.2527 5.84488 20.2527 8.06094C20.2527 8.83657 20.3189 9.55679 20.4513 10.2216C20.5836 10.831 20.6498 11.5235 20.6498 12.2992V13.1302C18.0024 11.8006 15.5205 10.4709 13.204 9.14128C10.8213 7.81164 8.14079 6.6759 5.16246 5.73407H3.87184C1.29061 5.73407 0 6.759 0 8.80886C0 9.52909 0.165463 10.554 0.49639 11.8837C0.761131 13.2133 1.15824 14.6814 1.68773 16.2881C2.21721 17.8393 2.84597 19.446 3.57401 21.108C3.7254 21.4421 3.87965 21.7702 4.03676 22.0923C4.01282 22.1492 4 22.2215 4 22.3134C4 22.6746 4.37121 24.1666 5.0437 25.1089C5.71619 26.0511 7.10283 27.7002 7.10283 27.7002L28.7905 55.8906C29.3958 56.6235 29.8329 57.5396 30.1019 58.639C30.3709 59.686 30.7071 60.7068 31.1106 61.7014C31.5141 62.6437 32.1193 63.4552 32.9263 64.1357C33.7333 64.8163 34.9438 65.1565 36.5577 65.1565C37.4992 65.1565 38.2053 64.9995 38.6761 64.6854C39.1468 64.3713 39.4831 64.0048 39.6848 63.586C39.9538 63.1149 40.0883 62.6176 40.0883 62.0941C40.1555 61.5182 40.2228 60.9947 40.29 60.5236C40.3573 60.1571 40.4582 59.6598 40.5927 59.0316C40.7272 58.351 40.8617 57.6967 40.9962 57.0685C41.1306 56.3879 41.2651 55.7859 41.3996 55.2624C41.5341 54.6866 41.6014 54.3463 41.6014 54.2416L52.5117 22.6121V22.298C52.5117 21.3034 51.9065 20.5181 50.696 19.9423C49.5528 19.3141 48.4096 19 47.2663 19C46.1231 19 45.1816 19.3664 44.4419 20.0993C43.7022 20.8322 43.4332 21.6698 43.6349 22.6121L40.29 31.6264L39.8865 32.3331L34.3385 48.5878L33.935 49.216C33.8005 49.0589 33.4643 48.6925 32.9263 48.1166C32.3883 47.4884 32.0185 46.9649 31.8167 46.5461C28.656 43.0387 25.9997 39.9762 23.8477 37.3587C21.6958 34.6889 19.9137 32.4117 18.5015 30.5271C17.0893 28.5901 15.9124 26.9934 14.9709 25.737C14.1959 24.6233 13.4738 23.7152 12.8045 23.0128C12.2893 22.2016 11.771 21.3998 11.417 20.9418C10.6889 20 10.0271 19.0028 9.43141 17.9501C8.76955 16.8975 8.43863 15.7341 8.43863 14.4598V13.795C9.82852 14.2936 11.5162 15.1801 13.5018 16.4543C15.4212 17.7285 17.3736 19.0305 19.3592 20.3601C21.3448 21.6898 23.231 22.8809 25.018 23.9335C26.8051 24.9862 28.228 25.5125 29.287 25.5125C30.2798 25.5125 31.1402 25.2632 31.8682 24.7645C32.5301 24.2659 32.861 23.5734 32.861 22.687C32.861 21.3573 32.5632 20.1385 31.9675 19.0305C31.3057 17.867 30.6107 16.759 29.8827 15.7064C29.0884 14.5983 28.3935 13.4903 27.7978 12.3823C27.136 11.2188 26.8051 10 26.8051 8.72576V7.97784C26.8051 7.53463 26.8381 7.25762 26.9043 7.14682C27.1029 6.81441 27.4669 6.5651 27.9964 6.39889C28.4597 6.23269 29.0223 6.14959 29.6841 6.14959C30.2798 6.09418 30.8755 6.06648 31.4711 6.06648H32.861C35.3099 6.06648 37.5271 6.37119 39.5126 6.98061C41.4982 7.53463 43.3183 8.61496 44.9729 10.2216C45.1053 10.3878 45.3369 10.6371 45.6679 10.9695C45.9988 11.3019 46.3628 11.6898 46.7599 12.133C47.0909 12.5208 47.4218 12.9363 47.7527 13.3795C48.0174 13.7673 48.1829 14.1274 48.2491 14.4598C48.2491 14.5152 48.2822 14.6537 48.3484 14.8753C48.3484 15.0416 48.3815 15.2632 48.4477 15.5402L48.6462 16.205C48.6462 16.4266 48.6793 16.5651 48.7455 16.6205C49.0764 17.1745 49.4404 17.5069 49.8375 17.6177Z" fill="url(#paint0_linear_62_4779)"/>
<defs>
<linearGradient id="paint0_linear_62_4779" x1="5.25161" y1="21.8009" x2="62.3571" y2="47.4637" gradientUnits="userSpaceOnUse">
<stop stop-color="#4BEBE2"/>
<stop offset="1" stop-color="#DD46FF"/>
</linearGradient>
</defs>
</svg>
